<svg enable-background="new 0 0 1466 119" height="119" viewBox="0 0 1466 119" width="1466" xmlns="http://www.w3.org/2000/svg" xmlns:xlink="http://www.w3.org/1999/xlink"><linearGradient id="a" gradientUnits="userSpaceOnUse" x1="855.58" x2="1288.93" y1="51.08" y2="51.08"><stop offset="0" stop-color="#a4b354"/><stop offset=".17" stop-color="#b7b44c"/><stop offset=".53" stop-color="#d7b33c"/><stop offset=".59" stop-color="#d8b542"/><stop offset=".85" stop-color="#dbbd5d"/><stop offset="1" stop-color="#dcc167"/></linearGradient><linearGradient id="b" gradientUnits="userSpaceOnUse" x1="595.77" x2="667.49" y1="103.26" y2="103.26"><stop offset="0" stop-color="#49929f"/><stop offset="1" stop-color="#50a8b0"/></linearGradient><linearGradient id="c" gradientUnits="userSpaceOnUse" x1="578.72" x2="705.66" y1="83.84" y2="83.84"><stop offset="0" stop-color="#408596"/><stop offset=".3" stop-color="#418798"/><stop offset=".56" stop-color="#438e9d"/><stop offset=".81" stop-color="#489aa6"/><stop offset="1" stop-color="#4da9b1"/></linearGradient><linearGradient id="d" gradientUnits="userSpaceOnUse" x1="189.02" x2="511.38" y1="-39.94" y2="153.76"><stop offset="0" stop-color="#172c52"/><stop offset=".18" stop-color="#182f54"/><stop offset=".39" stop-color="#1c385a"/><stop offset=".6" stop-color="#244765"/><stop offset=".83" stop-color="#2f5b76"/><stop offset="1" stop-color="#3b7086"/></linearGradient><linearGradient id="e" gradientUnits="userSpaceOnUse" x1="0" x2="114.11" y1="57.15" y2="57.15"><stop offset="0" stop-color="#183357"/><stop offset=".34" stop-color="#18375a"/><stop offset="1" stop-color="#17395c"/></linearGradient><linearGradient id="f" gradientUnits="userSpaceOnUse" x1="-1" x2="215.89" y1="59.5" y2="59.5"><stop offset="0" stop-color="#182e54"/><stop offset=".44" stop-color="#193457"/><stop offset="1" stop-color="#193659"/></linearGradient><linearGradient id="g" gradientUnits="userSpaceOnUse" x1="457.06" x2="713.68" y1="59.5" y2="59.5"><stop offset="0" stop-color="#32627b"/><stop offset=".65" stop-color="#498f9e"/><stop offset="1" stop-color="#55a9b2"/></linearGradient><linearGradient id="h" gradientUnits="userSpaceOnUse" x1="550.21" x2="814.5" y1="59.5" y2="59.5"><stop offset="0" stop-color="#32607a"/><stop offset=".2" stop-color="#377288"/><stop offset=".6" stop-color="#43a2b0"/><stop offset="1" stop-color="#60a79c"/></linearGradient><linearGradient id="i" gradientUnits="userSpaceOnUse" x1="805.09" x2="1434.48" y1="-54.75" y2="199.54"><stop offset="0" stop-color="#69afa1"/><stop offset=".2" stop-color="#92b56d"/><stop offset=".21" stop-color="#95b56b"/><stop offset=".41" stop-color="#b7b54f"/><stop offset=".61" stop-color="#cdb439"/><stop offset=".78" stop-color="#d9b32b"/><stop offset=".92" stop-color="#deb326"/></linearGradient><path d="m1288.93 83.94-106.02-88.09h-327.33c25.92 51.16 83.54 100.27 207.18 110.47z" fill="url(#a)"/><path d="m662.64 120.37c2.14-10.77 3.8-22.16 4.84-34.22 0 0-29.54 12.11-71.71 34.22z" fill="url(#b)"/><path d="m663.74 91.31c-.91 10.46-1.34 18.34-3.2 27.68h41.56l3.57-70.31c-23.76 13.4-77.04 41.09-126.95 70.32h26.8c36.59-19.18 58.22-27.69 58.22-27.69z" fill="url(#c)"/><path d="m1244.4-.28c15.53 9.85 33.05 16.92 48.13 7.73l35.5 22.28s-3.25-10.47-10.64-30.01h-72.99z" fill="#ddc063"/><path d="m1355.25-4.6c16.41 12.81 64.03 50.75 115.53 98.92l1.69-28.24c-30.89-30.4-57.4-53.29-78.72-70.69h-38.5z" fill="#dfb848"/><path d="m459.06 119c44.88-41.56 93.73-82.68 144.71-119h-388.89c-38.08 29.36-75 62.54-110 100.08 0 0-.25 6.87.37 18.92z" fill="url(#d)"/><path d="m0-.25v114.79c14.96-17.57 31.02-35.64 48.15-53.92 1.69-1.78 25.4-26.38 65.96-60.62z" fill="url(#e)"/><path d="m106.25 119c-.62-12.04-.37-18.92-.37-18.92 35-37.54 71.92-70.72 110.01-100.08h-103.78c-40.56 34.24-62.27 56.84-63.96 58.62-17.52 18.68-33.91 37.15-49.15 55.09v5.29z" fill="url(#f)"/><path d="m551.21 119c49.23-33.78 103.42-66.91 155.58-90.6l.74-11.35c1.08-5.79 3.2-11.48 6.14-17.05h-111.9c-50.98 36.32-99.83 77.44-144.71 119z" fill="url(#g)"/><path d="m585.73 119c49.91-29.23 95.18-54.92 118.93-68.31l-3.57 68.31h113.41c-15.67-23.32-27.45-52.66-32.39-89.46 0 0-2.71-10.53 1.85-29.54h-71.29c-2.95 5.58-5.06 11.27-6.14 17.05l-.74 11.35c-52.15 23.69-106.34 56.82-155.58 90.6z" fill="url(#h)"/><path d="m1458.16 125.42c-19.85-19.08-44.29-39.29-71.5-57.68l-65.4-41.84 74.74 99.53h62.16z" fill="#dfb848"/><path d="m1316.26 0c6.94 18.35 9.99 28.17 9.99 28.17l-33.33-23.74c-14.16 8.63-29.66 4.81-44.24-4.44h-74.09l98.06 81.47-209.19 20.69c-114.35-9.41-167.63-54.83-191.61-102.15h-88.89c-4.57 19.01-1.85 29.54-1.85 29.54 4.93 36.8 16.72 66.13 32.39 89.46h583.66l-65.08-84.68 53.98 35.44c23.69 16.02 43.99 32.62 61.27 49.24h19.7v-29.27c-46.71-43.69-89.9-78.11-104.79-89.73z" fill="url(#i)"/><path d="m1394.63 0c19.34 15.78 44.38 37.53 72.4 65.11v-65.11z" fill="#d9b337"/></svg>